<?xml version="1.0" encoding="UTF-8"?>
<svg xmlns="http://www.w3.org/2000/svg" xmlns:xlink="http://www.w3.org/1999/xlink" viewBox="0 0 242.75 355.63">
  <defs>
    <style>
      .cls-1 {
        fill: url(#gAA-2);
      }

      .cls-1, .cls-2, .cls-3, .cls-4, .cls-5, .cls-6, .cls-7, .cls-8, .cls-9, .cls-10, .cls-11, .cls-12, .cls-13, .cls-14, .cls-15, .cls-16, .cls-17, .cls-18, .cls-19, .cls-20, .cls-21, .cls-22, .cls-23, .cls-24, .cls-25, .cls-26, .cls-27, .cls-28, .cls-29, .cls-30, .cls-31, .cls-32, .cls-33, .cls-34, .cls-35, .cls-36, .cls-37, .cls-38, .cls-39, .cls-40, .cls-41, .cls-42, .cls-43, .cls-44, .cls-45, .cls-46, .cls-47, .cls-48, .cls-49, .cls-50, .cls-51, .cls-52, .cls-53, .cls-54, .cls-55, .cls-56, .cls-57, .cls-58, .cls-59, .cls-60, .cls-61, .cls-62, .cls-63, .cls-64 {
        stroke-width: 0px;
      }

      .cls-1, .cls-2, .cls-3, .cls-4, .cls-5, .cls-6, .cls-7, .cls-8, .cls-10, .cls-11, .cls-12, .cls-19, .cls-20, .cls-21 {
        mix-blend-mode: multiply;
      }

      .cls-1, .cls-2, .cls-3, .cls-4, .cls-6 {
        opacity: .3;
      }

      .cls-2 {
        fill: url(#gAA-3);
      }

      .cls-3 {
        fill: url(#gAA-4);
      }

      .cls-4 {
        fill: url(#gAA-5);
      }

      .cls-5 {
        fill: url(#gBB);
      }

      .cls-5, .cls-7, .cls-8, .cls-19, .cls-20, .cls-21, .cls-50 {
        opacity: .2;
      }

      .cls-6 {
        fill: url(#gAA);
      }

      .cls-7 {
        fill: url(#gCC-2);
      }

      .cls-8 {
        fill: url(#gCC);
      }

      .cls-9 {
        fill: url(#gDD-2);
      }

      .cls-9, .cls-13, .cls-18, .cls-22, .cls-46, .cls-47, .cls-48, .cls-49, .cls-50, .cls-54 {
        mix-blend-mode: screen;
      }

      .cls-9, .cls-22, .cls-47 {
        opacity: .72;
      }

      .cls-10 {
        fill: url(#gEE);
      }

      .cls-10, .cls-11, .cls-12, .cls-13, .cls-18, .cls-48, .cls-49 {
        opacity: .5;
      }

      .cls-11 {
        fill: url(#gEE-3);
      }

      .cls-12 {
        fill: url(#gEE-2);
      }

      .cls-13 {
        fill: url(#gFF-2);
      }

      .cls-14 {
        fill: url(#gGG);
      }

      .cls-15 {
        fill: url(#gHH);
      }

      .cls-16 {
        fill: url(#gII);
      }

      .cls-17 {
        fill: url(#gJJ);
      }

      .cls-18 {
        fill: url(#gKK-2);
      }

      .cls-19 {
        fill: url(#gDD-3);
      }

      .cls-20 {
        fill: url(#gDD-4);
      }

      .cls-21 {
        fill: url(#gDD-5);
      }

      .cls-22 {
        fill: url(#gLL);
      }

      .cls-23 {
        fill: url(#gMM-2);
      }

      .cls-24 {
        fill: url(#gMM-3);
      }

      .cls-25 {
        fill: url(#gNN-4);
      }

      .cls-26 {
        fill: url(#gNN-2);
      }

      .cls-27 {
        fill: url(#gNN-3);
      }

      .cls-28 {
        fill: url(#gOO-2);
      }

      .cls-29 {
        fill: url(#gOO-3);
      }

      .cls-30 {
        fill: url(#gPP-2);
      }

      .cls-31 {
        fill: url(#gPP-4);
      }

      .cls-32 {
        fill: url(#gPP-6);
      }

      .cls-33 {
        fill: url(#gPP-5);
      }

      .cls-34 {
        fill: url(#gPP-3);
      }

      .cls-35 {
        fill: url(#gPP-9);
      }

      .cls-36 {
        fill: url(#gPP-7);
      }

      .cls-37 {
        fill: url(#gPP-8);
      }

      .cls-38 {
        fill: url(#gQQ-2);
      }

      .cls-39 {
        fill: url(#gRR-4);
      }

      .cls-40 {
        fill: url(#gRR-9);
      }

      .cls-41 {
        fill: url(#gRR-5);
      }

      .cls-42 {
        fill: url(#gRR-8);
      }

      .cls-43 {
        fill: url(#gRR-7);
      }

      .cls-44 {
        fill: url(#gRR-6);
      }

      .cls-45 {
        fill: url(#gSS-2);
      }

      .cls-46 {
        fill: url(#gTT-4);
      }

      .cls-47 {
        fill: url(#gTT);
      }

      .cls-48 {
        fill: url(#gUU);
      }

      .cls-49 {
        fill: url(#gVV);
      }

      .cls-63 {
        isolation: isolate;
      }

      .cls-50 {
        fill: url(#gWW);
      }

      .cls-51 {
        fill: #2f95cd;
      }

      .cls-52 {
        fill: #dfe3fb;
      }

      .cls-53 {
        fill: #fff;
      }

      .cls-54 {
        fill: url(#gXX);
      }

      .cls-55 {
        fill: url(#gPP);
      }

      .cls-56 {
        fill: url(#gRR);
      }

      .cls-57 {
        fill: url(#gYY);
      }

      .cls-58 {
        fill: url(#gZZ);
      }

      .cls-59 {
        fill: url(#gQQ);
      }

      .cls-60 {
        fill: url(#gOO);
      }

      .cls-61 {
        fill: url(#gII2);
      }

      .cls-62 {
        fill: url(#gMM);
      }

      .cls-64 {
        fill: url(#gCC3);
      }
    </style>
    <linearGradient id="gXX" x1="-271.34" y1="237.7" x2="-201.94" y2="215.07" gradientTransform="translate(318.1 47.31) rotate(12.46)" gradientUnits="userSpaceOnUse">
      <stop offset="0" stop-color="#000"/>
      <stop offset=".11" stop-color="#060608"/>
      <stop offset=".27" stop-color="#19191e"/>
      <stop offset=".48" stop-color="#373843"/>
      <stop offset=".72" stop-color="#626377"/>
      <stop offset=".99" stop-color="#979ab7"/>
      <stop offset="1" stop-color="#9a9dbb"/>
    </linearGradient>
    <linearGradient id="gWW" x1="-75.94" y1="319.1" x2="-129.14" y2="168.68" gradientTransform="translate(318.1 47.31) rotate(12.46)" gradientUnits="userSpaceOnUse">
      <stop offset="0" stop-color="#000"/>
      <stop offset=".11" stop-color="#050506"/>
      <stop offset=".27" stop-color="#131417"/>
      <stop offset=".44" stop-color="#2b2c35"/>
      <stop offset=".64" stop-color="#4d4e5d"/>
      <stop offset=".85" stop-color="#777991"/>
      <stop offset="1" stop-color="#9a9dbb"/>
    </linearGradient>
    <radialGradient id="gAA" cx="-624.57" cy="137.16" fx="-624.57" fy="137.16" r="34.1" gradientTransform="translate(632.28 258.84) rotate(21.83) scale(.9)" gradientUnits="userSpaceOnUse">
      <stop offset="0" stop-color="#d0cdea"/>
      <stop offset="1" stop-color="#7d75da"/>
    </radialGradient>
    <linearGradient id="gBB" x1="-424.46" y1="61.04" x2="-430.25" y2="53.78" gradientTransform="translate(561.22 74.05) rotate(-3.09) scale(1.1 .91) skewX(-20.91)" gradientUnits="userSpaceOnUse">
      <stop offset="0" stop-color="#e5dcf4"/>
      <stop offset="1" stop-color="#2128a9"/>
    </linearGradient>
    <radialGradient id="gTT" cx="-631.88" cy="140" fx="-631.88" fy="140" r="6.69" gradientTransform="translate(632.28 258.84) rotate(21.83) scale(.9)" gradientUnits="userSpaceOnUse">
      <stop offset="0" stop-color="#45ffcd"/>
      <stop offset="1" stop-color="#22e0ff"/>
    </radialGradient>
    <linearGradient id="gDD" x1="-441.05" y1="222.22" x2="-429.28" y2="210.46" gradientTransform="translate(540.07 126.14) rotate(21.83)" gradientUnits="userSpaceOnUse">
      <stop offset="0" stop-color="#2128a9"/>
      <stop offset="1" stop-color="#e5dcf4"/>
    </linearGradient>
    <radialGradient id="gAA-2" cx="380.66" cy="137.6" fx="380.66" fy="137.6" r="34.1" gradientTransform="translate(543.36 222.78) rotate(-158.17) scale(.9 -.9)" xlink:href="#gAA"/>
    <linearGradient id="gBB-2" x1="201.29" y1="351.17" x2="195.51" y2="343.91" gradientTransform="translate(462.94 35.35) rotate(-133.25) scale(1.1 -.91) skewX(-20.92)" xlink:href="#gBB"/>
    <radialGradient id="gTT-2" cx="373.36" cy="140.45" fx="373.36" fy="140.45" r="6.69" gradientTransform="translate(543.36 222.78) rotate(-158.17) scale(.9 -.9)" xlink:href="#gTT"/>
    <linearGradient id="gDD-2" x1="184.2" y1="221.61" x2="195.96" y2="209.84" gradientTransform="translate(441.79 87.44) rotate(-158.17) scale(1 -1)" xlink:href="#gDD"/>
    <radialGradient id="gVV" cx="-43" cy="-198.91" fx="-43" fy="-198.91" r="11.09" gradientTransform="translate(-285 10.61) rotate(116.64) scale(1.88)" gradientUnits="userSpaceOnUse">
      <stop offset="0" stop-color="#ff5115"/>
      <stop offset=".06" stop-color="#ec4b13"/>
      <stop offset=".33" stop-color="#99300c"/>
      <stop offset=".56" stop-color="#571b07"/>
      <stop offset=".76" stop-color="#280c03"/>
      <stop offset=".91" stop-color="#0a0300"/>
      <stop offset="1" stop-color="#000"/>
    </radialGradient>
    <linearGradient id="gUU" x1="363.23" y1="-790.31" x2="372.2" y2="-790.31" gradientTransform="translate(-720.83 439.37) rotate(42.66)" gradientUnits="userSpaceOnUse">
      <stop offset="0" stop-color="#ffff56"/>
      <stop offset="1" stop-color="orange"/>
    </linearGradient>
    <radialGradient id="gVV-2" cx="-84.05" cy="-685.26" fx="-84.05" fy="-685.26" r="11.09" gradientTransform="translate(1389.07 681.46) rotate(107.02) scale(1.88 -1.88)" xlink:href="#gVV"/>
    <linearGradient id="gUU-2" x1="958.46" y1="-1017.3" x2="967.43" y2="-1017.3" gradientTransform="translate(1148.79 1188.81) rotate(-179) scale(1 -1)" xlink:href="#gUU"/>
    <radialGradient id="gAA-3" cx="-241.18" cy="2915.26" fx="-241.18" fy="2915.26" r="103.45" gradientTransform="translate(360.13 2873.26) rotate(171.83) scale(.9)" xlink:href="#gAA"/>
    <linearGradient id="gDD-3" x1="-382.59" y1="2828.34" x2="-344.34" y2="2828.34" gradientTransform="translate(236.4 3032.6) rotate(171.83)" xlink:href="#gDD"/>
    <radialGradient id="gZZ" cx="-250.84" cy="2915.27" fx="-250.84" fy="2915.27" r="102.74" gradientTransform="translate(360.13 2873.26) rotate(171.83) scale(.9)" gradientUnits="userSpaceOnUse">
      <stop offset="0" stop-color="#fafafd"/>
      <stop offset="1" stop-color="#c3bfee"/>
    </radialGradient>
    <radialGradient id="gYY" cx="1251.24" cy="2354.87" fx="1251.24" fy="2354.87" r="103.45" gradientTransform="translate(-2338.32 598.22) rotate(51.83) scale(.9 -.9)" gradientUnits="userSpaceOnUse">
      <stop offset="0" stop-color="#a7fafd"/>
      <stop offset="1" stop-color="#c3bfee"/>
    </radialGradient>
    <linearGradient id="gDD-4" x1="1441.67" y1="2456.86" x2="1479.92" y2="2456.86" gradientTransform="translate(-2760.47 503.2) rotate(51.83) scale(1 -1)" xlink:href="#gDD"/>
    <radialGradient id="gAA-4" cx="1241.57" cy="2354.87" fx="1241.57" fy="2354.87" r="102.74" gradientTransform="translate(-2338.32 598.22) rotate(51.83) scale(.9 -.9)" xlink:href="#gAA"/>
    <linearGradient id="gPP" x1="-405.3" y1="215.69" x2="-395.22" y2="135.41" gradientTransform="translate(540.07 126.14) rotate(21.83)" gradientUnits="userSpaceOnUse">
      <stop offset="0" stop-color="#cbc1f7"/>
      <stop offset="1" stop-color="#e8dcf7"/>
    </linearGradient>
    <linearGradient id="gRR" x1="-391.99" y1="152.73" x2="-399.84" y2="152.03" gradientTransform="translate(540.07 126.14) rotate(21.83)" gradientUnits="userSpaceOnUse">
      <stop offset="0" stop-color="#8879ea"/>
      <stop offset="1" stop-color="#9e8cef"/>
    </linearGradient>
    <linearGradient id="gPP-2" x1="-332.79" y1="216.58" x2="-322.54" y2="134.93" xlink:href="#gPP"/>
    <linearGradient id="gRR-2" x1="2684.08" y1="150.06" x2="2676.42" y2="149.38" gradientTransform="translate(2716.82 998.74) rotate(-158.17) scale(1 -1)" xlink:href="#gRR"/>
    <linearGradient id="gNN" x1="-327.57" y1="215.29" x2="-327.57" y2="166.44" gradientTransform="translate(540.07 126.14) rotate(21.83)" gradientUnits="userSpaceOnUse">
      <stop offset="0" stop-color="#9d68c2"/>
      <stop offset="1" stop-color="#ccedff"/>
    </linearGradient>
    <linearGradient id="gNN-2" x1="-403.56" y1="217.57" x2="-403.56" y2="159.4" xlink:href="#gNN"/>
    <linearGradient id="gPP-3" x1="-402.32" y1="346.07" x2="-395.04" y2="288.05" gradientTransform="translate(614.66 34.36) rotate(18.23)" xlink:href="#gPP"/>
    <linearGradient id="gQQ" x1="-396.89" y1="310.94" x2="-396.89" y2="289.4" gradientTransform="translate(614.66 34.36) rotate(18.23)" gradientUnits="userSpaceOnUse">
      <stop offset="0" stop-color="#be9dea"/>
      <stop offset="1" stop-color="#9e8cef"/>
    </linearGradient>
    <linearGradient id="gNN-3" x1="-396.8" y1="344.7" x2="-396.8" y2="289.69" gradientTransform="translate(614.66 34.36) rotate(18.23)" xlink:href="#gNN"/>
    <linearGradient id="gPP-4" x1="2505.4" y1="529.33" x2="2512.69" y2="471.31" gradientTransform="translate(2575.62 819.29) rotate(-154.58) scale(1 -1)" xlink:href="#gPP"/>
    <linearGradient id="gQQ-2" x1="2510.83" y1="494.2" x2="2510.83" y2="472.66" gradientTransform="translate(2575.62 819.29) rotate(-154.58) scale(1 -1)" xlink:href="#gQQ"/>
    <linearGradient id="gNN-4" x1="2510.92" y1="527.96" x2="2510.92" y2="472.95" gradientTransform="translate(2575.62 819.29) rotate(-154.58) scale(1 -1)" xlink:href="#gNN"/>
    <linearGradient id="gCC" x1="558.92" y1="74.5" x2="558.92" y2="29.77" gradientTransform="translate(678.11 182.1) rotate(-158.17) scale(1 -1)" gradientUnits="userSpaceOnUse">
      <stop offset="0" stop-color="#b9acf4"/>
      <stop offset="1" stop-color="#e1d1f5"/>
    </linearGradient>
    <linearGradient id="gQQ-3" x1="-413.17" y1="58.23" x2="-413.17" y2="30.4" gradientTransform="translate(540.07 126.14) rotate(21.83)" xlink:href="#gQQ"/>
    <linearGradient id="gCC-2" x1="-317.71" y1="75.13" x2="-317.71" y2="30.4" gradientTransform="translate(540.07 126.14) rotate(21.83)" xlink:href="#gCC"/>
    <linearGradient id="gQQ-4" x1="-314.46" y1="54.72" x2="-314.46" y2="30.4" gradientTransform="translate(540.07 126.14) rotate(21.83)" xlink:href="#gQQ"/>
    <linearGradient id="gRR-3" x1="-308.41" y1="77.28" x2="-308.41" y2="33.33" gradientTransform="translate(540.07 126.14) rotate(21.83)" gradientUnits="userSpaceOnUse">
      <stop offset="0" stop-color="#45ffcd"/>
      <stop offset="1" stop-color="#22e0ff"/>
    </linearGradient>
    <linearGradient id="gRR-4" x1="568.21" y1="76.64" x2="568.21" y2="32.69" gradientTransform="translate(678.11 182.1) rotate(-158.17) scale(1 -1)" xlink:href="#gRR-3"/>
    <linearGradient id="gPP-5" x1="-368.67" y1="138.58" x2="-354.45" y2="25.35" xlink:href="#gPP"/>
    <linearGradient id="gOO" x1="-364.03" y1="107.54" x2="-364.03" y2="28.31" gradientTransform="translate(540.07 126.14) rotate(21.83)" gradientUnits="userSpaceOnUse">
      <stop offset="0" stop-color="#0665bd"/>
      <stop offset="1" stop-color="#1a1f77"/>
    </linearGradient>
    <linearGradient id="gNN-5" x1="-363.64" y1="137.53" x2="-363.64" y2="70.04" xlink:href="#gNN"/>
    <linearGradient id="gRR-5" x1="-409.12" y1="128.76" x2="-321.18" y2="128.76" xlink:href="#gRR"/>
    <linearGradient id="gEE" x1="-365.15" y1="132.68" x2="-365.15" y2="120" gradientTransform="translate(540.07 126.14) rotate(21.83)" gradientUnits="userSpaceOnUse">
      <stop offset="0" stop-color="#8da4e5"/>
      <stop offset="1" stop-color="#755cbb"/>
    </linearGradient>
    <linearGradient id="gII" x1="-365.5" y1="130.88" x2="-363.85" y2="117.74" gradientTransform="translate(540.07 126.14) rotate(21.83)" gradientUnits="userSpaceOnUse">
      <stop offset="0" stop-color="#5e36cc"/>
      <stop offset="1" stop-color="#6c4a96"/>
    </linearGradient>
    <linearGradient id="gEE-2" x1="-410.17" y1="121.88" x2="-410.17" y2="104.1" xlink:href="#gEE"/>
    <linearGradient id="gRR-6" x1="-338.35" y1="71.88" x2="-338.35" y2="48.76" xlink:href="#gRR-3"/>
    <linearGradient id="gRR-7" x1="640.82" y1="71.33" x2="640.82" y2="48.1" gradientTransform="translate(773.26 220.22) rotate(-158.17) scale(1 -1)" xlink:href="#gRR-3"/>
    <linearGradient id="gPP-6" x1="-434.32" y1="110.26" x2="-427.8" y2="58.36" gradientTransform="translate(540.07 126.14) rotate(21.83)" xlink:href="#gPP"/>
    <linearGradient id="gJJ" x1="-363.62" y1="226.28" x2="-363.62" y2="211.65" gradientTransform="translate(546.91 100.49) rotate(35.08)" gradientUnits="userSpaceOnUse">
      <stop offset="0" stop-color="#dd1a8f"/>
      <stop offset="1" stop-color="#fe117e"/>
    </linearGradient>
    <linearGradient id="gGG" x1="-402.49" y1="46.95" x2="-321.44" y2="46.95" gradientTransform="translate(540.07 126.14) rotate(21.83)" gradientUnits="userSpaceOnUse">
      <stop offset="0" stop-color="#000"/>
      <stop offset="1" stop-color="#6a9bff"/>
    </linearGradient>
    <linearGradient id="gGG-2" x1="-391.04" y1="100.3" x2="-333.44" y2="100.3" xlink:href="#gGG"/>
    <linearGradient id="gII2" x1="-408.11" y1="103.48" x2="-408.11" y2="97.27" gradientTransform="translate(540.07 126.14) rotate(21.83)" gradientUnits="userSpaceOnUse">
      <stop offset="0" stop-color="#d93de3"/>
      <stop offset="1" stop-color="#ff6dba"/>
    </linearGradient>
    <linearGradient id="gWW-2" x1="-400.04" y1="125.92" x2="-400.04" y2="96.54" gradientTransform="translate(540.32 118.6) rotate(25.75)" gradientUnits="userSpaceOnUse">
      <stop offset="0" stop-color="#000"/>
      <stop offset="1" stop-color="#00e3ff"/>
    </linearGradient>
    <linearGradient id="gLL" x1="-315.4" y1="44.32" x2="-303.96" y2="44.32" gradientTransform="translate(540.07 126.14) rotate(21.83)" gradientUnits="userSpaceOnUse">
      <stop offset="0" stop-color="#000"/>
      <stop offset="1" stop-color="#d4e2ff"/>
    </linearGradient>
    <linearGradient id="gHH" x1="-425.09" y1="42.55" x2="-412.49" y2="42.55" gradientTransform="translate(540.07 126.14) rotate(21.83)" gradientUnits="userSpaceOnUse">
      <stop offset="0" stop-color="#d4e2ff"/>
      <stop offset="1" stop-color="#000"/>
    </linearGradient>
    <linearGradient id="gPP-7" x1="-433.57" y1="83.11" x2="-433.57" y2="68.58" gradientTransform="translate(539.95 125.27) rotate(22.77)" xlink:href="#gPP"/>
    <linearGradient id="gPP-8" x1="-370.3" y1="221.2" x2="-357.95" y2="122.83" xlink:href="#gPP"/>
    <linearGradient id="gQQ-5" x1="-366.04" y1="219.76" x2="-366.04" y2="157.43" gradientTransform="translate(540.07 126.14) rotate(21.83)" xlink:href="#gQQ"/>
    <radialGradient id="gTT-3" cx="-555.21" cy="136.46" fx="-555.21" fy="136.46" r="52.84" xlink:href="#gTT"/>
    <linearGradient id="gEE-3" x1="-366.65" y1="141.39" x2="-366.65" y2="122.1" xlink:href="#gEE"/>
    <linearGradient id="gJJ-2" x1="-391.26" y1="174.48" x2="-337.06" y2="174.48" xlink:href="#gJJ"/>
    <radialGradient id="gSS" cx="148.03" cy="5344.26" fx="148.03" fy="5344.26" r="93.31" gradientTransform="translate(126.22 -2535.06) scale(.53 .67)" gradientUnits="userSpaceOnUse">
      <stop offset="0" stop-color="#008cca"/>
      <stop offset="1" stop-color="#003bf1"/>
    </radialGradient>
    <linearGradient id="gMM" x1="202.96" y1="1036.09" x2="202.96" y2="956.78" gradientUnits="userSpaceOnUse">
      <stop offset="0" stop-color="#92fff1"/>
      <stop offset="1" stop-color="#0098ff"/>
    </linearGradient>
    <linearGradient id="gOO-2" x1="202.96" y1="1034.6" x2="202.96" y2="957.64" gradientUnits="userSpaceOnUse">
      <stop offset="0" stop-color="#00eff1"/>
      <stop offset="1" stop-color="#0098ff"/>
    </linearGradient>
    <linearGradient id="gCC3" x1="-50.24" y1="1025.08" x2="37.67" y2="1025.08" gradientTransform="translate(196.95) rotate(-180) scale(1 -1)" gradientUnits="userSpaceOnUse">
      <stop offset="0" stop-color="#40ff79"/>
      <stop offset=".1" stop-color="#3bee71"/>
      <stop offset=".29" stop-color="#31c45d"/>
      <stop offset=".56" stop-color="#20803d"/>
      <stop offset=".88" stop-color="#092411"/>
      <stop offset="1" stop-color="#000"/>
    </linearGradient>
    <radialGradient id="gKK" cx="606.8" cy="-1477.99" fx="606.8" fy="-1477.99" r="2.49" gradientTransform="translate(1541.99 544.68) rotate(-93.42)" gradientUnits="userSpaceOnUse">
      <stop offset="0" stop-color="#00b359"/>
      <stop offset=".13" stop-color="#009148"/>
      <stop offset=".34" stop-color="#005d2e"/>
      <stop offset=".54" stop-color="#00351a"/>
      <stop offset=".73" stop-color="#00170b"/>
      <stop offset=".89" stop-color="#000603"/>
      <stop offset="1" stop-color="#000"/>
    </radialGradient>
    <radialGradient id="gKK-2" cx="617.25" cy="-1473.98" fx="617.25" fy="-1473.98" r="2.49" xlink:href="#gKK"/>
    <radialGradient id="gFF" cx="586.8" cy="-1477.79" fx="586.8" fy="-1477.79" r="2.49" xlink:href="#gKK"/>
    <radialGradient id="gRR-8" cx="619.05" cy="-1487.32" fx="619.05" fy="-1487.32" r="6.96" xlink:href="#gKK"/>
    <radialGradient id="gRR-9" cx="568.49" cy="-1470.68" fx="568.49" fy="-1470.68" r="3.32" xlink:href="#gKK"/>
    <radialGradient id="gFF-2" cx="563.15" cy="-1500.65" fx="563.15" fy="-1500.65" r="1.66" xlink:href="#gKK"/>
    <radialGradient id="gSS-2" cx="588.84" cy="-1452.35" fx="588.84" fy="-1452.35" r="1.66" xlink:href="#gKK"/>
    <radialGradient id="gMM-2" cx="564.61" cy="-1476.91" fx="564.61" fy="-1476.91" r="1.24" xlink:href="#gKK"/>
    <radialGradient id="gMM-3" cx="563.12" cy="-1457.64" fx="563.12" fy="-1457.64" r="2.59" xlink:href="#gKK"/>
  </defs>
  <g class="cls-63">
    <g id="Camada_2" data-name="Camada 2">
      <g id="space">
        <g>
          <g>
            <g>
              <path class="cls-47" d="m65.53,121.22s-22.76,18.53-39.53,42.05C-13.95,219.31,2.02,283.51,9.81,313.45c0,0,22.35-81.75,70.17-184.39,0,0-4.57-6.05-14.44-7.84Z"/>
              <path class="cls-54" d="m207.71,174.18s4.96,28.93,2.12,57.68c-6.77,68.49-61.03,106.35-86.59,123.77,0,0,36.94-76.28,68.43-185.04,0,0,7.42-1.55,16.04,3.59Z"/>
              <path class="cls-14" d="m83.27,134.01l-13.06,22.05-4.65,7.83c1.18-2.93-14.98-2.06-16.15.87l.72-2.36,6.66-22.12.05-.16.57-.13,25.87-5.98Z"/>
              <path class="cls-8" d="m83.27,134.01l-13.06,22.05c-4.99-3.88-15.74,2.95-20.09,6.34l6.66-22.12.61-.29,25.87-5.98Z"/>
              <path class="cls-59" d="m65.56,163.89c.55-1.37-2.62-2.28-7.08-2.04-4.46.24-8.52,1.55-9.06,2.91-.55,1.37,2.62,2.28,7.08,2.04,4.46-.24,8.52-1.55,9.06-2.91Z"/>
              <path class="cls-5" d="m65.56,163.89c-.55,1.37-4.61,2.67-9.07,2.91-4.46.24-7.63-.68-7.08-2.05.11-.26.35-.53.69-.77.65.95,3.42,1.5,6.99,1.31,3.6-.19,6.94-1.09,8.38-2.14.16.22.19.48.09.74Z"/>
              <path class="cls-53" d="m67.64,156.13c-.63-1.23-6.31,1.29-6.78,1.87-.47.59,2.84.78,3.94.53,1.47-.33,3.47-1.19,2.84-2.41Z"/>
            </g>
            <g>
              <path class="cls-62" d="m186.68,175.43l-5.77,24.97-2.04,8.88c1.18-2.93,12.26,8.85,11.08,11.78l1.11-2.2,10.45-20.6.08-.15-.32-.48-14.59-22.19Z"/>
              <path class="cls-7" d="m186.68,175.43l-5.77,24.97c6.29.64,9.35,13,10.15,18.46l10.45-20.6-.24-.63-14.59-22.19Z"/>
              <path class="cls-61" d="m178.87,209.28c.55-1.37,3.47.16,6.53,3.41,3.06,3.25,5.09,7,4.55,8.37-.55,1.37-3.47-.16-6.53-3.41-3.06-3.25-5.09-7-4.55-8.37Z"/>
              <path class="cls-19" d="m178.86,209.28c-.55,1.37,1.49,5.11,4.55,8.37,3.06,3.25,5.99,4.77,6.54,3.4.11-.26.12-.62.03-1.04-1.13.24-3.51-1.27-5.96-3.88-2.47-2.62-4.27-5.58-4.58-7.33-.27.05-.47.21-.57.48Z"/>
              <path class="cls-53" d="m182.73,202.23c1.3-.45,3.68,5.29,3.62,6.04-.06.75-2.59-1.39-3.22-2.33-.83-1.26-1.68-3.26-.4-3.7Z"/>
            </g>
          </g>
          <g>
            <g>
              <path class="cls-49" d="m75.75,124.53c-10.28-5.16-14.44-17.68-9.28-27.96,5.16-10.28,17.68-14.44,27.96-9.28,10.28,5.16,14.44,17.68,9.28,27.96-5.16,10.28-17.68,14.44-27.96,9.28Z"/>
              <path class="cls-64" d="m76.6,111.9s4.64-13.83,17.88-8.08c0,0-14.3,5.98-17.88,8.08Z"/>
            </g>
            <g>
              <path class="cls-18" d="m198.66,173.76c11,3.37,22.65-2.82,26.02-13.82,3.37-11-2.82-22.65-13.82-26.02-11-3.37-22.65,2.82-26.02,13.82-3.37,11,2.82,22.65,13.82,26.02Z"/>
              <path class="cls-9" d="m206.77,164.04s6.19-13.2-7.36-18.19c0,0,6.22,14.19,7.36,18.19Z"/>
            </g>
          </g>
          <g>
            <g>
              <path class="cls-1" d="m174.05,176.74s7.37-27.89,4.16-50.09l6.26-3.1s47.74,54.26,24.71,112.64l-1.99,2.04h0s-2.66-6.64-6.83-15.81c-.01,0-.01-.03-.02-.04-6.55-14.37-16.79-34.89-26.28-45.64Z"/>
              <path class="cls-5" d="m174.05,176.74s7.37-27.89,4.16-50.09l6.26-3.1s47.74,54.26,24.71,112.64l-1.99,2.04c.2-.45,9.64-21.21-.19-58.94-9.96-38.23-27.41-14.87-28.83-7.06-1.42,7.8,13.39,21.44,22.16,50.15-6.55-14.37-16.79-34.89-26.28-45.64Z"/>
              <path class="cls-58" d="m184.48,123.55l-1.85.36s44.08,55.2,24.55,114.33l2-2.04s26.02-51.27-24.7-112.65Z"/>
            </g>
            <g>
              <path class="cls-17" d="m91.5,143.67s13.92-25.27,31.57-39.12l-2.39-6.56s-72,6.29-95.64,64.43l.04,2.85h0s6.52-2.96,15.86-6.71c.01,0,.03-.01.04-.02,14.66-5.87,36.23-13.65,50.52-14.88Z"/>
              <path class="cls-21" d="m91.5,143.67s13.92-25.27,31.57-39.12l-2.39-6.56s-72,6.29-95.64,64.43l.04,2.85c.17-.46,6.9-18.65,40.05-39.16,33.6-20.78,30.86,4.81,26.51,11.45-4.36,6.62-24.49,6.27-50.66,20.98,14.66-5.87,36.23-13.65,50.52-14.88Z"/>
              <path class="cls-3" d="m120.69,97.99l1.09,1.54s-70,9.51-96.69,65.76l-.04-2.86s16.57-55.05,95.64-64.44Z"/>
            </g>
          </g>
          <g>
            <path class="cls-55" d="m98.97,184.13c-.65-.32-1.32-.68-1.99-1.09-11.64-7-24.76-26.23-11.09-47.32.55-.86,1.15-1.69,1.79-2.52.29-.42.53-.72.63-.85.04-.06.06-.09.06-.09,12.33-15.59,35.92-26.56,35.92-26.56,1.74,4.68-1.28,10.84-4.99,16.05,0,0,0,.01-.02,0-1.8,2.56-3.78,4.88-5.43,6.69-2.16,2.37-3.78,3.88-3.78,3.88-7.28,7.53-10.99,19.04-10.99,19.04l-.13,31.87.02.9Z"/>
            <path class="cls-56" d="m124.28,105.69s-14.45,11.18-18.36,28.59c0,0,7.21-5.35,12.66-12.38,5.45-7.03,7.58-13.03,5.7-16.22Z"/>
            <path class="cls-34" d="m141.59,198.46l19.73-23.61s4.92-6.74,7.04-14.69c.6-2.23.97-4.54.96-6.84,0,0-.41-6.86.63-14-.01,0,0-.02,0-.02.92-6.33,2.99-12.87,7.48-15.06,0,0,9.31,23.82,7.67,43.51-.12,1.61-.32,3.18-.61,4.72-4.93,26.12-30.14,30.05-42.89,26Z"/>
              <path class="cls-38" d="m177.43,124.23s2.89,19.13-7.62,34.27c0,0-.36-9.75.55-18.6.91-8.85,3.51-14.66,7.07-15.67Z"/>
            <path class="cls-6" d="m141.59,198.46l19.73-23.61s4.92-6.74,7.04-14.69l2.61-2.55s-6.91,18.89-3.08,26.2c4.72,9.04,14.61-3.62,17.21-16.06-.12,1.61-.32,3.18-.61,4.72-4.93,26.12-30.14,30.05-42.89,26Z"/>
            <path class="cls-2" d="m98.95,183.23l-1.98-.19c-11.64-7-24.76-26.23-11.09-47.32.55-.86,1.15-1.69,1.79-2.52-1.48,2.16-6.92,13.97-4.43,20.24,3.18,8.04,17.44-9.96,24.63-24.02,2.27-4.44,4.28-3.86,5.97-.97-2.16,2.37-3.78,3.88-3.78,3.88-7.28,7.53-10.99,19.04-10.99,19.04l-.13,31.87Z"/>
            <path class="cls-33" d="m157.51,200.42c-.35.76-.73,1.54-1.12,2.35-5.99,12.35-15.83,30.13-21.96,35.76-1.46,1.35-2.72,2-3.66,1.72-.25-.07-.48-.19-.71-.36-.79-.54-1.47-1.55-2.06-2.91h0c-3.68-8.5-3.72-30.62-1.99-36.64.21-.75.46-1.25.72-1.44,4.82-3.43,34.06-10.91,34.8-8.63.19.61-1.43,4.64-4.02,10.15Z"/>
            <path class="cls-30" d="m126.01,200.33c-1.33,1.57,25.61,5.84,35.51-10.07,0,0-1.19-1.27-3.71-1.49-7.17-.6-22.52.63-31.81,11.55Z"/>
            <path class="cls-57" d="m157.51,200.42s-15.35-.47-20.77,5.1c-5.41,5.56-9.39,21.72-8.74,31.45-3.68-8.49-3.72-30.61-1.99-36.63.21-.75.46-1.25.72-1.44,4.82-3.43,34.06-10.91,34.8-8.63.19.61-1.43,4.64-4.02,10.15Z"/>
            <path class="cls-53" d="m130.85,226.31c.93.68.37,4.96-1.52,4.82-1.89-.14-.62-6.39,1.52-4.82Z"/>
            <path class="cls-31" d="m87.06,172.2c-.27.79-.53,1.62-.81,2.48-4.19,13.07-9.35,32.73-8.8,41.03.13,1.99.58,3.33,1.46,3.77.23.12.48.19.76.23.94.15,2.13-.1,3.5-.68h0c8.53-3.61,23.82-19.58,26.73-25.13.36-.69.53-1.22.47-1.54-1.12-5.81-17.11-31.41-19.22-30.27-.56.31-2.17,4.34-4.1,10.12Z"/>
            <path class="cls-55" d="m109.91,193.88c-.12,2.05-22.56-13.45-18.74-31.8,0,0,1.27-.32,3.29,1.32,5.63,4.56,16.27,16.25,15.46,30.48Z"/>
            <path class="cls-52" d="m87.06,172.2s11.43,10.26,11.5,18.03c.08,7.76-8.2,22.2-15.39,28.78,8.53-3.6,23.82-19.57,26.73-25.12.36-.69.53-1.22.47-1.54-1.12-5.81-17.11-31.41-19.22-30.27-.56.31-2.17,4.34-4.1,10.12Z"/>
            <path class="cls-53" d="m92.81,202.29c-1.14-.15-8.02,10.38-6.56,11.58,1.46,1.21,9.19-11.23,6.56-11.58Z"/>
            <g>
              <path class="cls-17" d="m156.99,14.26s-4.9-9.46-13.62-14.26c0,0-3.36.25-10.64,9.05-7.29,8.8-9.29,31.15-9.29,31.15l33.56-25.94Z"/>
              <path class="cls-34" d="m137.8,3.61s2.84-2.83,5.57-3.61c0,0,4.75,9.98-2.2,26.49l-3.08,1.38-.29-24.26Z"/>
              <path class="cls-58" d="m218.97,39.08s10.08-3.46,19.69-.91c0,0,2.26,2.5,1.45,13.89-.8,11.4-14.78,28.95-14.78,28.95l-6.37-41.93Z"/>
              <path class="cls-31" d="m238.66,38.17s-10.6,4.98-15.73,17.79l2.14,2.96,15.28-13.95s-.6-6.54-1.69-6.8Z"/>
              <path class="cls-55" d="m225.15,57.94s2.41-11.73,12.83-16.89c0,0,6.6,7.09,4.27,22.66-2.33,15.56-14.51,20.59-14.51,20.59l-2.6-26.35Z"/>
              <path class="cls-56" d="m139.5,23.63s6.36-10.15,2.38-21.08c0,0-9.67.58-18.73,13.44-9.06,12.87-3.72,24.91-3.72,24.91l20.07-17.27Z"/>
              <path class="cls-13" d="m210.92,122.42c-26.1,16.74-103.95-16.46-106.59-39.51-1.71-15.05,6.47-33.37,19.76-47.92,17.43-19.1,43.67-31.73,67.88-22.03,28.49,11.41,39.01,48.56,35.22,77.12-1.92,14.46-7.49,26.71-16.27,32.34Z"/>
              <path class="cls-52" d="m120,60.78c-2.65,17.46,65.69,46.85,88.44,39.18,22.75-7.67,18.92-68.84-19.39-81.58-35.04-11.65-64.71,13.8-69.05,42.4Z"/>
              <path class="cls-22" d="m120.42,58.69c-2.65,17.46,65.69,46.85,88.45,39.18,22.75-7.67,18.92-68.84-19.39-81.58-35.04-11.65-64.71,13.8-69.05,42.4Z"/>
              <path class="cls-4" d="m210.92,122.42c-26.1,16.74-103.95-16.46-106.59-39.51-1.71-15.05,6.47-33.37,19.76-47.92,0,0,.01,0,.01,0-.68.9-16.88,22.27-14.39,35.52,2.54,13.55,30.33,22.94,60.01,33.39,29.68,10.43,41.03,10.07,49.23,3.8,6.45-4.93,8.3-20.78,8.79-27.29l-.56,9.69c-1.92,14.46-7.49,26.71-16.27,32.34Z"/>
              <path class="cls-24" d="m184.04,126.22c-10.1-.85-24.93-4.51-34.06-8.18-16.31-6.56-27.35-13.11-32.88-18.38h-.01c-3.63-3.46-4.9-6.37-3.74-8.37.71-1.22,4.36-1.07,9.79.03,15.9,3.26,46.92,14.74,62.45,23.86,1.33.78,2.56,1.55,3.65,2.3.23.16.45.32.66.47.06.04.09.06.13.09,2.57,1.84,4.25,3.51,4.73,4.91.12.37.17.69.14,1-.22,2.25-4.64,2.78-10.86,2.27Z"/>
              <path class="cls-12" d="m184.04,126.22c-2.97-3.04-22.07-21.79-42.3-25.07-22.02-3.55-24.64-1.49-24.64-1.49h-.01c-3.63-3.46-4.9-6.37-3.74-8.37.71-1.22,4.36-1.07,9.79.03,15.9,3.26,46.92,14.74,62.45,23.86,1.6,1,3.05,1.93,4.31,2.77.06.04.09.06.13.09,2.57,1.84,4.25,3.51,4.73,4.91.12.37.17.69.14,1-.22,2.25-4.64,2.78-10.86,2.27Z"/>
              <path class="cls-32" d="m189.23,117.48c-5.34,2.15-25.12-2.08-35.67-6.32-18.9-7.61-29.2-15.19-30.42-19.85,17.27,3.54,52.38,16.78,66.1,26.17Z"/>
              <path class="cls-16" d="m104.34,82.91s4.87-2.54,12.62-3.05c7.76-.51,14.72-.56,16.64-2.69,1.93-2.13-17.44-8.18-17.44-8.18l-10.97.31s-1.55,8.12-.86,13.61Z"/>
              <path class="cls-36" d="m190.56,59.32c.73,5.39,15.4,12.4,20.72,8.3,3.16-2.44,2.42-20.78-6.71-23.28-9.13-2.5-14.37,12.37-14.02,14.98Z"/>
              <path class="cls-37" d="m163.56,48.3c-4.25,3.39-22.24-2.37-21.05-7.33,1.91-7.96,12.21-17.75,20.54-13.26,8.33,4.49,2.57,18.95.51,20.59Z"/>
              <path class="cls-51" d="m161.93,57.65s2.86,2.15,11.94,5.79c9.08,3.64,14.3,4.13,14.3,4.13,0,0-6.18,3.82-15.92-.08-9.74-3.9-10.32-9.84-10.32-9.84Z"/>
              <path class="cls-41" d="m120.34,20.76s3.6,5.06-2.47,11.01c0,0-27.57,3.26-31.64,17.21-3.4,11.64,30.04,18.74,30.04,18.74l-.38,4.19s-28.64-5.44-35.3-15.36c0,0-.15-8.65,12.92-18.9,13.08-10.25,26.82-16.9,26.82-16.9Z"/>
              <path class="cls-15" d="m112.74,65.09c-4.14,2.08.49,8.03,5.25,10.56,5.33,2.84,16.13,4.6,17.78-1.25,1.65-5.86-13.32-14.19-23.02-9.31Z"/>
              <path class="cls-35" d="m147.92,22.87c-2.93,4.82,8.66,9.21,24.54,14.97,19.08,6.92,31.5,30.71,47.17,23.48,2.58-1.19-5.36-33.58-27.35-41.74-21.98-8.15-41.82-.9-44.36,3.29Z"/>
              <path class="cls-45" d="m140.55,72.18c-2.5,3.35,3.84,10.24,23.5,17.01,23.76,8.19,30.67,5.29,30.06,3.48-.36-1.09-9.11.51-26.56-11.35-11.53-7.83-24.37-12.67-27-9.15Z"/>
              <path class="cls-53" d="m203.98,21.6c-1.81-.28,9.13,12.63,10.05,11.98.91-.65-5.04-11.21-10.05-11.98Z"/>
              <path class="cls-53" d="m228.38,37.75c-1.68.19-2.17,1.73.84,2.5,3.02.77,5.47-.85,5.34-1.41-.14-.56-4.29-1.31-6.18-1.1Z"/>
              <path class="cls-60" d="m112.88,65.84c-.54.85,19.28,9.05,21.16,5.72,1.88-3.33-17.01-12.3-21.16-5.72Z"/>
              <path class="cls-50" d="m123.39,53.78s1.37-5.76,5.24-12.67c3.88-6.91,7.72-10.84,8.62-9.71.9,1.13-2.14,8.2-4.27,15.51-1.66,5.69-2.66,11.25-2.66,11.25,0,0-6.97,2.8-6.93-4.39Z"/>
              <path class="cls-46" d="m241.61,49.97s-1.33-4.33-5.27-4.9c-3.94-.57-8.72,10.66-6.68,11.8,2.04,1.14,5.57-5.04,7.63-5.41,2.06-.37,4.78,1.19,4.78,1.19l-.46-2.68Z"/>
              <path class="cls-22" d="m128.92,9.39s2.02-1.02,4.93.74c2.91,1.76,2.15,8.88,4,8.87,1.85,0,4.83-10.84,1.84-15.57,0,0-7.29,2.46-10.77,5.96Z"/>
              <path class="cls-11" d="m118.64,22.79s-15.99,7.97-15.67,9.12c.32,1.15,15.82-7.58,15.67-9.12Z"/>
            </g>
            <g>
              <path class="cls-42" d="m159.42,186.1c-7.67,12.55-23.32,16.7-40.61,9.77-15.04-6.03-25.54-16.74-23.96-30.44,1.58-13.69,12.02-35.99,22.21-48.4,1.52-1.85,3.15-3.57,4.87-5.14l.02-.02c1.55-1.42,3.17-2.72,4.85-3.87.01,0,.02-.02.02-.02,8.8-6.06,19-8.25,28.08-4.61,9.46,3.79,15.13,10.58,17.76,18.3,1.22,3.59,1.78,7.39,1.75,11.18-.03,4.36-.39,8.86-1.05,13.38-.01.03-.02.07-.03.13-2.06,14.16-7.04,28.51-13.89,39.72Z"/>
              <path class="cls-44" d="m100.49,153.23c9.81-17.04,29.21-23.48,44.7-15.51,16.7,8.59,19.39,28.89,13.45,43.01-5.94,14.12-20.78,21.05-39.4,13.59-18.62-7.46-27.93-25.15-18.75-41.09Z"/>
              <path class="cls-39" d="m100.05,154.79c9.81-17.04,29.21-23.48,44.7-15.51,16.7,8.59,19.39,28.89,13.45,43.01-5.94,14.12-20.78,21.05-39.4,13.59-18.62-7.46-27.93-25.15-18.75-41.09Z"/>
              <path class="cls-43" d="m172.64,121.69c-6,4.3-27.61-.46-38.89-6.22-9.82-5.02-7.17-7.15-6.96-7.46.01,0,.02-.02.02-.02,8.8-6.06,19-8.25,28.08-4.61,9.46,3.79,15.13,10.58,17.76,18.3Z"/>
              <path class="cls-53" d="m161.43,128.82c-1.07-.07-4.15,7.51-3.66,9.13.5,1.62,2.23,1.88,3.47.3,1.24-1.58,1.8-9.33.18-9.43Z"/>
              <path class="cls-53" d="m158.7,140.67c-.86-.13-1.71,1.72-1.61,2.52s1.52,1.21,2.06.5c.54-.71.41-2.89-.46-3.02Z"/>
              <path class="cls-9" d="m110.8,145.79c1.1,6.11,14.74,8.55,28.37,15.62,13.63,7.07,14.2,12.65,17.57,12.92,3.37.26,7.19-22.99-13.42-32.93-20.62-9.94-32.79,2.87-32.52,4.39Z"/>
            </g>
            <path class="cls-53" d="m98.13,126.66c-1.43-1.11-6.8,5.05-7.03,6-.23.96,3.81-.64,4.99-1.56,1.56-1.22,3.46-3.35,2.04-4.45Z"/>
            <path class="cls-53" d="m175.5,152.89c-.78-.32-2.52,3.61-2.95,5.34-.43,1.73.33,3.77.77,4,.43.23,3.97-8.62,2.19-9.34Z"/>
          </g>
        </g>
      </g>
    </g>
  </g>
</svg>
