<?xml version="1.0" encoding="UTF-8"?>
<svg xmlns="http://www.w3.org/2000/svg" xmlns:xlink="http://www.w3.org/1999/xlink" viewBox="0 0 102.97 86.43">
  <defs>
    <style>
      .cls-1 {
        fill: url(#gA);
      }

      .cls-1, .cls-2, .cls-3, .cls-4, .cls-5, .cls-6, .cls-7, .cls-8, .cls-9, .cls-10, .cls-11, .cls-12, .cls-13, .cls-14, .cls-15, .cls-16, .cls-17 {
        stroke-width: 0px;
      }

      .cls-2 {
        fill: url(#gB);
      }

      .cls-18 {
        isolation: isolate;
      }

      .cls-3 {
        fill: url(#gC-8);
      }

      .cls-3, .cls-4, .cls-5, .cls-6, .cls-7, .cls-8, .cls-9, .cls-10, .cls-15, .cls-16, .cls-17 {
        mix-blend-mode: screen;
      }

      .cls-4 {
        fill: url(#gC-5);
      }

      .cls-5 {
        fill: url(#gC-7);
      }

      .cls-6 {
        fill: url(#gC-9);
      }

      .cls-7 {
        fill: url(#gC-3);
      }

      .cls-8 {
        fill: url(#gC-2);
      }

      .cls-9 {
        fill: url(#gC-4);
      }

      .cls-10 {
        fill: url(#gC-6);
      }

      .cls-11 {
        fill: #1d6eff;
      }

      .cls-12 {
        fill: #fff;
      }

      .cls-13 {
        fill: #ffffab;
      }

      .cls-14 {
        fill: url(#gD);
      }

      .cls-15 {
        fill: url(#gE);
      }

      .cls-16 {
        fill: url(#gF);
      }

      .cls-17 {
        fill: url(#gC);
      }
    </style>
    <radialGradient id="gB" cx="-236.34" cy="4390.09" fx="-236.34" fy="4390.09" r="93.99" gradientTransform="translate(179.76 -2851.16) scale(.53 .67)" gradientUnits="userSpaceOnUse">
      <stop offset="0" stop-color="#008cca"/>
      <stop offset="1" stop-color="#003bf1"/>
    </radialGradient>
    <linearGradient id="gA" x1="51.49" y1="81.99" x2="51.49" y2=".77" gradientUnits="userSpaceOnUse">
      <stop offset="0" stop-color="#92fff1"/>
      <stop offset="1" stop-color="#0098ff"/>
    </linearGradient>
    <linearGradient id="gD" x1="51.48" y1="80.5" x2="51.48" y2="1.61" gradientUnits="userSpaceOnUse">
      <stop offset="0" stop-color="#00eff1"/>
      <stop offset="1" stop-color="#0098ff"/>
    </linearGradient>
    <linearGradient id="gF" x1="330.29" y1="70.98" x2="418.2" y2="70.98" gradientTransform="translate(426.39) rotate(-180) scale(1 -1)" gradientUnits="userSpaceOnUse">
      <stop offset="0" stop-color="#40ff79"/>
      <stop offset=".1" stop-color="#3bee71"/>
      <stop offset=".29" stop-color="#31c45d"/>
      <stop offset=".56" stop-color="#20803d"/>
      <stop offset=".88" stop-color="#092411"/>
      <stop offset="1" stop-color="#000"/>
    </linearGradient>
    <radialGradient id="gC" cx="186.97" cy="-1079.87" fx="186.97" fy="-1079.87" r="2.49" gradientTransform="translate(1120.31 151.23) rotate(-93.42)" gradientUnits="userSpaceOnUse">
      <stop offset="0" stop-color="#00b359"/>
      <stop offset=".13" stop-color="#009148"/>
      <stop offset=".34" stop-color="#005d2e"/>
      <stop offset=".54" stop-color="#00351a"/>
      <stop offset=".73" stop-color="#00170b"/>
      <stop offset=".89" stop-color="#000603"/>
      <stop offset="1" stop-color="#000"/>
    </radialGradient>
    <radialGradient id="gC-2" cx="197.42" cy="-1075.86" fx="197.42" fy="-1075.86" r="2.49" xlink:href="#gC"/>
    <radialGradient id="gC-3" cx="166.98" cy="-1079.68" fx="166.98" fy="-1079.68" r="2.49" xlink:href="#gC"/>
    <radialGradient id="gC-4" cx="204.36" cy="-1090.22" fx="204.36" fy="-1090.22" r="7.65" xlink:href="#gC"/>
    <radialGradient id="gC-5" cx="148.66" cy="-1072.56" fx="148.66" fy="-1072.56" r="3.32" xlink:href="#gC"/>
    <radialGradient id="gC-6" cx="143.32" cy="-1102.53" fx="143.32" fy="-1102.53" r="1.66" xlink:href="#gC"/>
    <radialGradient id="gC-7" cx="169.01" cy="-1054.23" fx="169.01" fy="-1054.23" r="1.66" xlink:href="#gC"/>
    <radialGradient id="gC-8" cx="144.78" cy="-1078.79" fx="144.78" fy="-1078.79" r="1.24" xlink:href="#gC"/>
    <radialGradient id="gC-9" cx="143.29" cy="-1059.52" fx="143.29" fy="-1059.52" r="2.6" xlink:href="#gC"/>
    <linearGradient id="gE" x1="7.13" y1="20.19" x2="100.26" y2="20.19" gradientUnits="userSpaceOnUse">
      <stop offset="0" stop-color="#7ed140"/>
      <stop offset=".11" stop-color="#74c03b"/>
      <stop offset=".34" stop-color="#5a962e"/>
      <stop offset=".65" stop-color="#315219"/>
      <stop offset="1" stop-color="#000"/>
    </linearGradient>
  </defs>
  <g class="cls-18">
    <g id="Camada_2" data-name="Camada 2">
      <g id="space">
        <g>
          <path class="cls-2" d="m2.46,74.01c3.54,13.83,89.31,17.72,96.61,3.34,6.64-13.07,3.94-59.85-1.74-69.18C89.61-4.54,11.05-.98,4.79,9.02-1.05,18.35-1.21,59.68,2.46,74.01Z"/>
          <path class="cls-1" d="m2.75,71.57c3.53,13.34,88.79,14.29,96.06.43,6.61-12.6,4.01-54.27-1.64-63.26C89.47-3.52,11.19-.29,4.95,9.35-.86,18.35-.91,57.75,2.75,71.57Z"/>
          <path class="cls-14" d="m3.81,70.39c3.45,12.94,86.87,13.87,93.99.41,6.47-12.23,3.92-52.66-1.61-61.39C88.65-2.48,12.02.5,5.92,9.86.23,18.58.23,56.98,3.81,70.39Z"/>
          <path class="cls-16" d="m96.1,71.05s-38.91,12.85-87.91,1.51c0,0,31.83,5.17,45.99,0,24.04-8.78,35.6-11.38,41.92-1.51Z"/>
          <g>
            <g>
              <path class="cls-17" d="m31.09,26.48c1.37-.08,2.55.96,2.63,2.33.08,1.37-.96,2.55-2.33,2.63-1.37.08-2.55-.96-2.63-2.33-.08-1.37.96-2.55,2.33-2.63Z"/>
              <path class="cls-13" d="m31.39,28.26c.38-.02.71.27.73.65.02.38-.27.71-.65.73-.38.02-.71-.27-.73-.65-.02-.38.27-.71.65-.73Z"/>
            </g>
            <g>
              <path class="cls-8" d="m34.47,15.8c1.37-.08,2.55.96,2.63,2.33.08,1.37-.96,2.55-2.33,2.63s-2.55-.96-2.63-2.33c-.08-1.37.96-2.55,2.33-2.63Z"/>
              <path class="cls-13" d="m34.77,17.59c.38-.02.71.27.73.65s-.27.71-.65.73c-.38.02-.71-.27-.73-.65-.02-.38.27-.71.65-.73Z"/>
            </g>
            <g>
              <path class="cls-7" d="m32.48,46.42c1.37-.08,2.55.96,2.63,2.33.08,1.37-.96,2.55-2.33,2.63-1.37.08-2.55-.96-2.63-2.33-.08-1.37.96-2.55,2.33-2.63Z"/>
              <path class="cls-13" d="m32.78,48.21c.38-.02.71.27.73.65s-.27.71-.65.73c-.38.02-.71-.27-.73-.65-.02-.38.27-.71.65-.73Z"/>
            </g>
            <g>
              <path class="cls-9" d="m18.43,4.97c3.84-.23,9.48,8.07,9.71,11.9.23,3.84-5.04,1.76-8.88,1.98-3.84.23-7.13-2.69-7.36-6.53-.23-3.84,2.69-7.13,6.53-7.36Z"/>
              <path class="cls-13" d="m19.27,9.96c1.06-.06,1.97.75,2.04,1.81s-.75,1.97-1.81,2.04c-1.06.06-1.97-.75-2.04-1.81-.06-1.06.75-1.97,1.81-2.04Z"/>
            </g>
            <g>
              <path class="cls-4" d="m40.62,63.45c1.83-.11,3.41,1.29,3.51,3.12.11,1.83-1.29,3.41-3.12,3.52-1.83.11-3.41-1.29-3.51-3.12-.11-1.83,1.29-3.41,3.12-3.52Z"/>
              <path class="cls-13" d="m41.02,65.83c.51-.03.94.36.97.86.03.51-.36.94-.86.97-.51.03-.94-.36-.97-.86-.03-.51.36-.94.86-.97Z"/>
            </g>
            <g>
              <path class="cls-10" d="m11.12,72.22c.92-.05,1.7.64,1.76,1.56.05.92-.64,1.7-1.56,1.76-.92.05-1.7-.64-1.76-1.56-.05-.92.64-1.7,1.56-1.76Z"/>
              <path class="cls-13" d="m11.32,73.41c.25-.02.47.18.49.43.02.25-.18.47-.43.49-.25.02-.47-.18-.49-.43-.02-.25.18-.47.43-.49Z"/>
            </g>
            <g>
              <path class="cls-5" d="m57.8,43.7c.92-.05,1.7.64,1.76,1.56.05.92-.64,1.7-1.56,1.76-.92.05-1.7-.64-1.76-1.56-.05-.92.64-1.7,1.56-1.76Z"/>
              <path class="cls-13" d="m58,44.89c.25-.02.47.18.49.43s-.18.47-.43.49c-.25.02-.47-.18-.49-.43-.02-.25.18-.47.43-.49Z"/>
            </g>
            <g>
              <path class="cls-3" d="m34.76,69.77c.68-.04,1.27.48,1.31,1.16.04.68-.48,1.27-1.16,1.31-.68.04-1.27-.48-1.31-1.16-.04-.68.48-1.27,1.16-1.31Z"/>
              <path class="cls-13" d="m34.91,70.66c.19-.01.35.13.36.32.01.19-.13.35-.32.36-.19.01-.35-.13-.36-.32s.13-.35.32-.36Z"/>
            </g>
            <g>
              <path class="cls-6" d="m54,68.76c1.43-.09,2.66,1,2.75,2.44s-1,2.66-2.44,2.74c-1.43.09-2.66-1-2.75-2.44-.09-1.43,1-2.66,2.44-2.75Z"/>
              <path class="cls-13" d="m54.31,70.62c.4-.02.74.28.76.67.02.4-.28.74-.67.76-.4.02-.74-.28-.76-.67-.02-.4.28-.74.67-.76Z"/>
            </g>
          </g>
          <path class="cls-11" d="m40.74,18.7s11.45,4.45,27.71,23.73c0,0-9.68,14.38-27.71,22.71l-3.64-5.88s11.02-7.84,17.91-17.34c0,0-4.64-10.06-16.53-17.26l2.26-5.96Z"/>
          <path class="cls-12" d="m93.82,73.53c-.44-1.48,3.48-8.23,4.47-8.2s.11,4.44-.49,5.47c-.6,1.03-3.76,3.47-3.98,2.73Z"/>
          <path class="cls-15" d="m7.13,9.61s59.09-16.44,89.27,0c0,0,2.66,6.24,3.86,16.07,0,0-9.54,11.12-27.6,12.35-15.54,1.06-30.67-18.78-43.78-21.24-13.11-2.46-21.76-7.19-21.76-7.19Z"/>
          <path class="cls-12" d="m5.97,13.55c-1.09.16-3.82,8.64-3.66,10.03.16,1.39,3.44-3.01,3.96-5.35.51-2.34-.3-4.68-.3-4.68Z"/>
          <path class="cls-12" d="m6.44,12.21c-1.32-.52,1.03-4.13,3.04-5.03,2.01-.9,6.98-1.93,7.54-1,.56.94-9.09,6.61-10.58,6.03Z"/>
        </g>
      </g>
    </g>
  </g>
</svg>
